<svg xmlns="http://www.w3.org/2000/svg" width="1600" height="480" viewBox="0 0 1600 480" fill="none">
  <defs>
    <linearGradient id="panel" x1="44" y1="84" x2="1260" y2="356" gradientUnits="userSpaceOnUse">
      <stop stop-color="#15191F" stop-opacity="0.94"/>
      <stop offset="1" stop-color="#0A0D11" stop-opacity="0.8"/>
    </linearGradient>
    <linearGradient id="line" x1="68" y1="96" x2="1188" y2="332" gradientUnits="userSpaceOnUse">
      <stop stop-color="#FFFFFF" stop-opacity="0.18"/>
      <stop offset="1" stop-color="#FFFFFF" stop-opacity="0.05"/>
    </linearGradient>
    <filter id="shadow" x="20" y="60" width="1280" height="340" filterUnits="userSpaceOnUse" color-interpolation-filters="sRGB">
      <feDropShadow dx="0" dy="22" stdDeviation="24" flood-color="#000000" flood-opacity="0.28"/>
    </filter>
  </defs>

  <g filter="url(#shadow)">
    <path d="M112 84H1192C1233 84 1258 109 1258 150V252C1258 293 1233 318 1192 318H364L274 392L296 318H112C71 318 46 293 46 252V150C46 109 71 84 112 84Z" fill="url(#panel)" stroke="url(#line)"/>
  </g>

  <path d="M118 132H416" stroke="#FFFFFF" stroke-opacity="0.08"/>
  <path d="M118 292H646" stroke="#FFFFFF" stroke-opacity="0.08"/>

  <text x="118" y="126" fill="#8E887F" font-family="Space Grotesk, 'Segoe UI', sans-serif" font-size="22" font-weight="500" letter-spacing="0.22em">SORRY. GAMES</text>
  <text x="118" y="214" fill="#FFFAF2" font-family="Space Grotesk, 'Segoe UI', sans-serif" font-size="96" font-weight="700" letter-spacing="-0.07em">Bug Reports</text>
  <text x="118" y="262" fill="#B3ACA2" font-family="Space Grotesk, 'Segoe UI', sans-serif" font-size="28" font-weight="500" letter-spacing="-0.025em">Found something busted? Good.</text>

  <rect x="1044" y="110" width="166" height="38" rx="19" fill="#FFFFFF" fill-opacity="0.035" stroke="#FFFFFF" stroke-opacity="0.12"/>
  <text x="1074" y="135" fill="#F4F0E8" font-family="Space Grotesk, 'Segoe UI', sans-serif" font-size="16" font-weight="700" letter-spacing="0.16em">CHANNEL 07</text>

  <circle cx="1368" cy="240" r="114" stroke="#FFFFFF" stroke-opacity="0.11"/>
  <circle cx="1368" cy="240" r="84" stroke="#FFFFFF" stroke-opacity="0.05"/>
  <rect x="1335" y="212" width="66" height="60" rx="24" stroke="#FFFFFF" stroke-opacity="0.16"/>
  <path d="M1368 196V212" stroke="#FFFFFF" stroke-opacity="0.22" stroke-linecap="round"/>
  <path d="M1345 200L1352 214" stroke="#FFFFFF" stroke-opacity="0.14" stroke-linecap="round"/>
  <path d="M1391 200L1384 214" stroke="#FFFFFF" stroke-opacity="0.14" stroke-linecap="round"/>
  <path d="M1335 234H1320" stroke="#FFFFFF" stroke-opacity="0.14" stroke-linecap="round"/>
  <path d="M1401 234H1416" stroke="#FFFFFF" stroke-opacity="0.14" stroke-linecap="round"/>
  <path d="M1335 252H1322" stroke="#FFFFFF" stroke-opacity="0.12" stroke-linecap="round"/>
  <path d="M1401 252H1414" stroke="#FFFFFF" stroke-opacity="0.12" stroke-linecap="round"/>
  <circle cx="1288" cy="170" r="5" fill="#E14136"/>
</svg>
