<svg xmlns="http://www.w3.org/2000/svg" width="1600" height="480" viewBox="0 0 1600 480" fill="none">
  <defs>
    <linearGradient id="panel" x1="44" y1="84" x2="1260" y2="356" gradientUnits="userSpaceOnUse">
      <stop stop-color="#15191F" stop-opacity="0.94"/>
      <stop offset="1" stop-color="#0A0D11" stop-opacity="0.8"/>
    </linearGradient>
    <linearGradient id="line" x1="68" y1="96" x2="1188" y2="332" gradientUnits="userSpaceOnUse">
      <stop stop-color="#FFFFFF" stop-opacity="0.18"/>
      <stop offset="1" stop-color="#FFFFFF" stop-opacity="0.05"/>
    </linearGradient>
    <filter id="shadow" x="20" y="60" width="1280" height="340" filterUnits="userSpaceOnUse" color-interpolation-filters="sRGB">
      <feDropShadow dx="0" dy="22" stdDeviation="24" flood-color="#000000" flood-opacity="0.28"/>
    </filter>
  </defs>

  <g filter="url(#shadow)">
    <path d="M112 84H1192C1233 84 1258 109 1258 150V252C1258 293 1233 318 1192 318H364L274 392L296 318H112C71 318 46 293 46 252V150C46 109 71 84 112 84Z" fill="url(#panel)" stroke="url(#line)"/>
  </g>

  <path d="M118 132H416" stroke="#FFFFFF" stroke-opacity="0.08"/>
  <path d="M118 292H714" stroke="#FFFFFF" stroke-opacity="0.08"/>

  <text x="118" y="126" fill="#8E887F" font-family="Space Grotesk, 'Segoe UI', sans-serif" font-size="22" font-weight="500" letter-spacing="0.22em">SORRY. GAMES</text>
  <text x="118" y="206" fill="#FFFAF2" font-family="Space Grotesk, 'Segoe UI', sans-serif" font-size="82" font-weight="700" letter-spacing="-0.07em">Ideas + Feedback</text>
  <text x="118" y="258" fill="#B3ACA2" font-family="Space Grotesk, 'Segoe UI', sans-serif" font-size="28" font-weight="500" letter-spacing="-0.025em">Useful noise, sharp notes, better ideas.</text>

  <rect x="1044" y="110" width="166" height="38" rx="19" fill="#FFFFFF" fill-opacity="0.035" stroke="#FFFFFF" stroke-opacity="0.12"/>
  <text x="1074" y="135" fill="#F4F0E8" font-family="Space Grotesk, 'Segoe UI', sans-serif" font-size="16" font-weight="700" letter-spacing="0.16em">CHANNEL 05</text>

  <circle cx="1368" cy="240" r="114" stroke="#FFFFFF" stroke-opacity="0.11"/>
  <circle cx="1368" cy="240" r="84" stroke="#FFFFFF" stroke-opacity="0.05"/>
  <path d="M1316 205H1392C1404 205 1412 213 1412 225V249C1412 261 1404 269 1392 269H1356L1330 290L1338 269H1316C1304 269 1296 261 1296 249V225C1296 213 1304 205 1316 205Z" stroke="#FFFFFF" stroke-opacity="0.16"/>
  <path d="M1350 221H1395C1404 221 1410 227 1410 236V255C1410 264 1404 270 1395 270H1374L1354 286L1360 270H1350C1341 270 1335 264 1335 255V236C1335 227 1341 221 1350 221Z" fill="#FFFFFF" fill-opacity="0.03" stroke="#FFFFFF" stroke-opacity="0.08"/>
  <circle cx="1288" cy="170" r="5" fill="#E14136"/>
</svg>
